<svg width="21" height="21" viewBox="0 0 21 21" fill="none" xmlns="http://www.w3.org/2000/svg">
<path d="M14.9338 8.51078C14.9338 8.43935 14.898 8.35899 14.8445 8.30542L14.398 7.85899C14.3445 7.80542 14.2641 7.76971 14.1927 7.76971C14.1213 7.76971 14.0409 7.80542 13.9873 7.85899L10.4784 11.3679L6.96947 7.85899C6.9159 7.80542 6.83554 7.76971 6.76411 7.76971C6.68376 7.76971 6.61233 7.80542 6.55876 7.85899L6.11233 8.30542C6.05876 8.35899 6.02304 8.43935 6.02304 8.51078C6.02304 8.58221 6.05876 8.66256 6.11233 8.71614L10.273 12.8768C10.3266 12.9304 10.407 12.9661 10.4784 12.9661C10.5498 12.9661 10.6302 12.9304 10.6838 12.8768L14.8445 8.71614C14.898 8.66256 14.9338 8.58221 14.9338 8.51078Z" fill="black"/>
</svg>
